<?xml version="1.0" encoding="UTF-8"?>
<!DOCTYPE svg PUBLIC "-//W3C//DTD SVG 1.1//EN" "http://www.w3.org/Graphics/SVG/1.1/DTD/svg11.dtd">
<!-- Creator: CorelDRAW 2017 -->
<svg xmlns="http://www.w3.org/2000/svg" xml:space="preserve" width="114.547mm" height="83.6991mm" version="1.1" style="shape-rendering:geometricPrecision; text-rendering:geometricPrecision; image-rendering:optimizeQuality; fill-rule:evenodd; clip-rule:evenodd"
viewBox="0 0 8050 5882"
 xmlns:xlink="http://www.w3.org/1999/xlink">
 <defs>
  <style type="text/css">
   <![CDATA[
    .fil0 {fill:#2C2A2C;fill-rule:nonzero}
   ]]>
  </style>
 </defs>
 <g id="Camada_x0020_1">
  <metadata id="CorelCorpID_0Corel-Layer"/>
  <path class="fil0" d="M3942 4791c256,-147 414,-419 414,-716 0,-455 -370,-826 -826,-826 -155,0 -552,29 -897,300 -339,267 -519,684 -537,1241l1845 0 0 0zm-2030 92l0 -5c1,-442 93,-809 274,-1099l0 -801c0,-50 41,-91 91,-91l507 0c50,0 91,41 91,91l0 220c43,-18 86,-34 127,-47 -35,-13 -60,-46 -60,-86l0 -202c0,-112 47,-220 129,-296 82,-76 193,-115 304,-108l1778 125c251,18 447,228 448,479 0,51 -40,93 -92,93l-165 0c-333,0 -611,263 -617,596 -6,340 268,619 607,619l329 0c43,-96 99,-186 164,-268 199,-384 241,-822 124,-1300 -85,-350 -229,-596 -240,-616 -195,-81 -334,-271 -341,-493 0,-6 0,-12 0,-18 0,-6 0,-12 0,-19 6,-194 112,-362 268,-456l0 -185c-97,-37 -166,-131 -166,-240l0 -512c0,-139 108,-258 247,-264 146,-6 267,112 267,257l0 519c0,110 -69,203 -166,240l0 116c33,-6 68,-10 103,-10l616 0c50,0 91,41 91,91l0 926c0,50 -41,91 -91,91l-248 0 138 338c19,47 -3,100 -50,119l0 0c-47,19 -100,-3 -119,-50l-166 -407 -154 0c56,116 132,299 188,524 93,377 92,743 0,1077 159,-102 343,-170 541,-191l-258 -633c-19,-47 3,-100 50,-119l0 0c47,-19 100,3 119,50l284 697c660,32 1186,580 1186,1247 0,50 -41,91 -91,91l-161 0c-46,509 -475,908 -995,908 -521,0 -949,-400 -996,-908l-1087 0c-50,0 -91,-41 -91,-91l0 0c0,-50 41,-91 91,-91l838 0c6,-81 20,-160 40,-236l-1180 0c-47,87 -106,167 -177,236l52 0c50,0 91,41 91,91l0 0c0,50 -41,91 -91,91l-164 0c-46,509 -475,908 -995,908 -520,0 -949,-400 -996,-908l-134 0c-50,0 -91,-41 -91,-91zm1616 91l-790 0c42,180 203,314 395,314 192,0 354,-134 395,-314zm-395 726c420,0 766,-318 812,-726l-130 0 0 0 -100 0c-44,281 -288,497 -581,497 -293,0 -537,-216 -581,-497l-230 0c46,408 392,726 812,726zm1696 -1328c-174,-145 -285,-363 -285,-607 0,-244 111,-462 285,-607l-883 0c349,159 592,510 592,918 0,102 -15,202 -45,297l335 0 0 0zm574 -1398c-37,-113 -139,-198 -264,-207l-1778 -125c-62,-4 -121,17 -167,59 -46,42 -71,100 -71,162l0 111 2279 0zm-2711 96l-324 0 0 474c47,-49 97,-95 151,-137 57,-45 114,-83 172,-117l0 -220zm4110 2630c420,0 766,-318 812,-726l-230 0c-44,281 -288,497 -581,497 -293,0 -537,-216 -581,-497l-230 0c46,408 392,726 812,726zm-395 -726c42,180 203,314 395,314 192,0 354,-134 395,-314l-790 0zm395 -1157c-557,0 -1015,429 -1062,974l2123 0c-47,-545 -505,-974 -1062,-974zm-646 -1769l13 0 0 -743 -245 0c-36,0 -70,5 -103,15l0 9c154,41 269,181 269,348 0,173 -122,317 -284,352 37,13 77,20 119,20l232 0 0 0zm293 -743l-97 0 0 743 97 0 0 -743zm-719 194c-98,0 -177,80 -177,177 0,98 80,177 177,177 98,0 177,-80 177,-177 0,-98 -80,-177 -177,-177zm75 -1242c0,-41 -33,-75 -75,-75 -41,0 -75,33 -75,75l0 519c0,41 33,75 75,75 41,0 75,-33 75,-75l0 -519z"/>
  <path class="fil0" d="M2702 3704l891 0c50,0 91,41 91,91 0,50 -41,91 -91,91l-891 0c-50,0 -91,-41 -91,-91 0,-50 41,-91 91,-91z"/>
  <path class="fil0" d="M2935 3999l658 0c50,0 91,41 91,91 0,50 -41,91 -91,91l-658 0c-50,0 -91,-41 -91,-91 0,-50 41,-91 91,-91z"/>
  <path class="fil0" d="M3168 4290l425 0c50,0 91,41 91,91 0,50 -41,91 -91,91l-425 0c-50,0 -91,-41 -91,-91 0,-50 41,-91 91,-91z"/>
  <path class="fil0" d="M116 2700l1130 0c64,0 116,52 116,116 0,64 -52,116 -116,116l-1130 0c-64,0 -116,-52 -116,-116 0,-64 52,-116 116,-116z"/>
  <path class="fil0" d="M808 3500l834 0c64,0 116,52 116,116 0,64 -52,116 -116,116l-834 0c-64,0 -116,-52 -116,-116 0,-64 52,-116 116,-116z"/>
  <path class="fil0" d="M1023 3075l539 0c64,0 116,52 116,116 0,64 -52,116 -116,116l-539 0c-64,0 -116,-52 -116,-116 0,-64 52,-116 116,-116z"/>
  <path class="fil0" d="M150 3909l1130 0c64,0 116,52 116,116 0,64 -52,116 -116,116l-1130 0c-64,0 -116,-52 -116,-116 0,-64 52,-116 116,-116z"/>
  <path class="fil0" d="M843 4709l834 0c64,0 116,52 116,116 0,64 -52,116 -116,116l-834 0c-64,0 -116,-52 -116,-116 0,-64 52,-116 116,-116z"/>
  <path class="fil0" d="M1057 4284l539 0c64,0 116,52 116,116 0,64 -52,116 -116,116l-539 0c-64,0 -116,-52 -116,-116 0,-64 52,-116 116,-116z"/>
 </g>
</svg>
